# xmcd
#
# Track frame offsets:
#	150
#	20374
#	35619
#	49538
#	69513
#	89486
#	109222
#	131373
#	146354
#	160212
#	184172
#	206126
#	232293
#	252274
#	270922
#	294417
#	313422
#	339348
#
# Disc length: 4766 seconds
#
# Revision: 0
# Processed by: cddbd v1.5.1PL0 Copyright (c) Steve Scherf et al.
# Submitted via: audiograbber 1.82.02
#
DISCID=0a129c12
DTITLE=Технология - Лучшее
DYEAR=2000
DGENRE=pop
TTITLE0=Нажми на кнопку
TTITLE1=Сигнал
TTITLE2=Все, что ты хочешь
TTITLE3=Холодный след
TTITLE4=Один
TTITLE5=Черный день
TTITLE6=Сегодня ночью
TTITLE7=В память о тебе
TTITLE8=Песня обо всем
TTITLE9=Рано или поздно
TTITLE10=Странные танцы
TTITLE11=Песня ни о чем
TTITLE12=Шутник
TTITLE13=Полчаса
TTITLE14=Телефон небес
TTITLE15=Экран
TTITLE16=Первый полет
TTITLE17=Саморазрушение
EXTD=
EXTT0=
EXTT1=
EXTT2=
EXTT3=
EXTT4=
EXTT5=
EXTT6=
EXTT7=
EXTT8=
EXTT9=
EXTT10=
EXTT11=
EXTT12=
EXTT13=
EXTT14=
EXTT15=
EXTT16=
EXTT17=
PLAYORDER=
